<svg xmlns="http://www.w3.org/2000/svg" viewBox="0 0 236 236"><style>@media (prefers-color-scheme:dark){path{fill:#fff}}</style><path d="M151.204 193.872c-26.516 9.384-56.72 7.487-83.036-7.687-26.216-15.174-42.963-40.531-48.146-68.184 1.196 1.896 3.09 3.294 5.782 3.494l37.68 2.895c7.575.599 14.952-1.298 20.933-5.391l28.01-19.167c3.489-2.396 8.573.499 8.274 4.791l-2.592 33.843c-.598 7.287 1.495 14.575 5.782 20.864l21.332 31.147c1.595 2.396 3.788 3.395 5.981 3.395Zm20.734-173.905-12.76 166.717a8.158 8.158 0 0 1-2.392 5.091c19.338-8.186 36.384-22.462 47.648-42.128 27.114-47.02 11.663-106.918-34.39-135.07 1.196 1.497 1.993 3.294 1.894 5.39ZM22.315 107.718l137.86-94.54c1.695-1.197 3.688-1.397 5.582-.997C118.408-13.675 58.898 2.896 31.784 49.916c-11.363 19.667-15.25 41.53-12.56 62.394.4-1.797 1.396-3.394 3.09-4.592Z" fill="#2E3191"/><path d="M118.01 236c-35.388 0-68.582-13.777-93.602-38.834-9.27-9.284-17.145-19.966-23.326-31.546-2.392-4.493-.697-10.183 3.888-12.579 4.486-2.396 10.168-.699 12.56 3.893 5.283 9.983 12.061 19.068 20.036 27.054 21.531 21.564 50.04 33.344 80.444 33.344 30.403 0 58.912-11.88 80.443-33.344a115.344 115.344 0 0 0 20.036-27.054c2.393-4.492 8.075-6.289 12.56-3.893 4.486 2.396 6.28 8.086 3.888 12.579-6.18 11.58-13.956 22.162-23.326 31.546C186.591 222.223 153.397 236 118.01 236Z" fill="#2E3191"/></svg>